<svg xmlns="http://www.w3.org/2000/svg" fill="none" viewBox="0 0 24 24"><path fill="#fff" d="M7.5 22h14c.275 0 .5-.225.5-.5V7h-3.5c-.827 0-1.5-.673-1.5-1.5V2H7.5c-.275 0-.5.225-.5.5v19c0 .275.225.5.5.5z"/><path fill="#fff" d="M21.293 6 18 2.707V5.5c0 .275.225.5.5.5h2.793z"/><path fill="#605E5C" fill-rule="evenodd" d="m22.56 5.854-4.414-4.415A1.51 1.51 0 0 0 17.086 1H7.5C6.673 1 6 1.673 6 2.5v19c0 .827.673 1.5 1.5 1.5h14c.827 0 1.5-.673 1.5-1.5V6.914c0-.4-.156-.777-.44-1.06zM18 2.707 21.293 6H18.5a.501.501 0 0 1-.5-.5V2.707zM7.5 22h14c.275 0 .5-.225.5-.5V7h-3.5c-.827 0-1.5-.673-1.5-1.5V2H7.5c-.275 0-.5.225-.5.5v19a.5.5 0 0 0 .5.5z" clip-rule="evenodd" opacity=".64"/><path fill="#185ABD" d="M19.5 14H14v1h5.5a.5.5 0 0 0 0-1z"/><path fill="#2B7CD3" d="M19.5 12H14v1h5.5a.5.5 0 0 0 0-1z"/><path fill="#41A5EE" d="M19.5 10H14v1h5.5a.5.5 0 0 0 0-1z"/><path fill="#185ABD" d="M2 19h10a1 1 0 0 0 1-1V8a1 1 0 0 0-1-1H2a1 1 0 0 0-1 1v10a1 1 0 0 0 1 1z"/><path fill="#fff" d="m11 10-1.507 6h-1.41s-1.021-4.253-1.032-4.5L5.968 16h-1.47L3 10h1.386l.909 4.714L6.452 10h1.34l1.05 4.714c.016 0 .88-4.714.88-4.714H11z"/></svg>